# xmcd CD database file
#
# Track frame offsets:
#	150
#	14777
#	30727
#	47300
#	60250
#	80610
#
# Disc length: 1320 seconds
#
# Revision: 0
# Processed by: cddbd v1.5.1PL0 Copyright (c) Steve Scherf et al.
# Submitted via: CDex 1.51
#
DISCID=40052606
DTITLE=ピラニアンズ - キュッキュキュパパ
DYEAR=1996
DGENRE=JPop
TTITLE0=キュッキュキュパパ
TTITLE1=サンバNo.3
TTITLE2=ストンピン アット ザ サボイ
TTITLE3=セレソローサ
TTITLE4=バターココ
TTITLE5=ワルツ フォー ミー
EXTD=YEAR: 1996
EXTT0=
EXTT1=
EXTT2=
EXTT3=
EXTT4=
EXTT5=
PLAYORDER=
